Coordinates
version=1
nRows=19
nColumns=36
inDegrees=yes

Units are S.I. units (second, meters, Newtons, ...)
Angles are in degrees.

endheader
time	pelvis_tilt	pelvis_list	pelvis_rotation	pelvis_tx	pelvis_ty	pelvis_tz	hip_flexion_r	hip_adduction_r	hip_rotation_r	knee_angle_r	ankle_angle_r	subtalar_angle_r	hip_flexion_l	hip_adduction_l	hip_rotation_l	knee_angle_l	ankle_angle_l	subtalar_angle_l	lumbar_extension	lumbar_bending	lumbar_rotation	arm_flex_r	arm_add_r	arm_rot_r	elbow_flex_r	pro_sup_r	wrist_flex_r	wrist_dev_r	arm_flex_l	arm_add_l	arm_rot_l	elbow_flex_l	pro_sup_l	wrist_flex_l	wrist_dev_l
      1.25000000	     -0.15820581	     -6.00298563	      2.13409145	     -0.66743956	      0.90621435	     -0.25299290	     22.14776954	     10.14372009	     -5.50106787	    -27.92418052	      0.44962630	     -6.49732173	     -0.15214821	     -6.45565802	      2.67195644	    -55.04047620	    -13.93311620	      9.03089696	     -4.47920059	      9.27217831	     -7.14035358	     -4.27892122	    -17.06170522	     18.70266427	     12.41361638	     86.51662706	      0.00000000	      0.00000000	      1.93946591	    -16.57172182	     16.82950306	     38.51584571	     86.51662706	      0.00000000	      0.00000000
      1.26000000	     -0.02783785	     -6.17286727	      2.49556084	     -0.65461007	      0.90784248	     -0.25301976	     20.94515060	     10.26784322	     -5.91556071	    -27.66148065	      1.51891564	     -5.90122476	      1.77642843	     -6.51724380	      3.33609021	    -57.59349695	    -13.21786099	      7.62129589	     -4.66516583	      9.53358928	     -7.00844575	     -3.93499042	    -17.11947520	     18.79695201	     12.91609733	     86.51662706	      0.00000000	      0.00000000	      1.97071928	    -16.33002772	     17.54770475	     37.53903653	     86.51662706	      0.00000000	      0.00000000
      1.27000000	      0.10224508	     -6.22300875	      2.87092546	     -0.64197653	      0.90958929	     -0.25309365	     19.66975247	     10.26229930	     -6.41610082	    -27.25732376	      2.49534469	     -5.21845911	      3.71494955	     -6.38800002	      3.99143692	    -59.81897320	    -12.11906865	      6.30020783	     -4.86490577	      9.65459318	     -6.86088158	     -3.56544309	    -17.17075641	     18.94192797	     13.43592308	     86.51662706	      0.00000000	      0.00000000	      2.05488307	    -16.10196875	     18.36449718	     36.43275368	     86.51662706	      0.00000000	      0.00000000
      1.28000000	      0.22561031	     -6.15869452	      3.22550543	     -0.62943633	      0.91142898	     -0.25313955	     18.33624122	     10.14992138	     -6.95870869	    -26.73158789	      3.37031653	     -4.47887750	      5.63233604	     -6.07829870	      4.60865211	    -61.67962861	    -10.78154649	      5.14790865	     -5.06617246	      9.63442621	     -6.67762778	     -3.17786493	    -17.21868037	     19.13596561	     13.97339425	     86.51662706	      0.00000000	      0.00000000	      2.16653058	    -15.89161087	     19.25489290	     35.21878048	     86.51662706	      0.00000000	      0.00000000
      1.29000000	      0.33653430	     -5.99100921	      3.53195683	     -0.61689658	      0.91335624	     -0.25312121	     16.95916615	      9.95467059	     -7.49070586	    -26.10846209	      4.14731863	     -3.71824213	      7.50366357	     -5.61325594	      5.16079280	    -63.15401345	     -9.32263839	      4.21047446	     -5.25788698	      9.48203675	     -6.44122528	     -2.78058437	    -17.26610405	     19.37188872	     14.53064245	     86.51662706	      0.00000000	      0.00000000	      2.28073739	    -15.70051195	     20.19006564	     33.92400489	     86.51662706	      0.00000000	      0.00000000
      1.30000000	      0.42901203	     -5.73519787	      3.77222633	     -0.60431785	      0.91535200	     -0.25302993	     15.55417350	      9.69970775	     -7.95530160	    -25.41396415	      4.83590430	     -2.97680260	      9.31254210	     -5.03069157	      5.62114817	    -64.23436625	     -7.82388944	      3.49639189	     -5.43127467	      9.21455787	     -6.13927328	     -2.38110996	    -17.31590815	     19.63783720	     15.11122154	     86.51662706	      0.00000000	      0.00000000	      2.37597790	    -15.52709577	     21.13955399	     32.57753413	     86.51662706	      0.00000000	      0.00000000
      1.31000000	      0.49763779	     -5.40951922	      3.93671368	     -0.59171403	      0.91736378	     -0.25286110	     14.13888738	      9.40607430	     -8.29823223	    -24.67290840	      5.44744018	     -2.29595607	     11.05147963	     -4.37587521	      5.96428611	    -64.92356294	     -6.33424852	      2.98039169	     -5.58025520	      8.85424441	     -5.76573043	     -1.98462321	    -17.37137137	     19.91868242	     15.71957426	     86.51662706	      0.00000000	      0.00000000	      2.43587873	    -15.36739280	     22.07378900	     31.20760979	     86.51662706	      0.00000000	      0.00000000
      1.32000000	      0.53900000	     -5.03389803	      4.02216226	     -0.57911386	      0.91931901	     -0.25260548	     12.73223793	      9.09250984	     -8.47540998	    -23.90660586	      5.99306456	     -1.71341412	     12.71983763	     -3.69450057	      6.16973057	    -65.23209262	     -4.88053118	      2.61269191	     -5.70150035	      8.42508555	     -5.32103928	     -1.59295805	    -17.43641978	     20.19775979	     16.36042058	     86.51662706	      0.00000000	      0.00000000	      2.44985268	    -15.21664849	     22.96655969	     29.83889438	     86.51662706	      0.00000000	      0.00000000
      1.33000000	      0.55210397	     -4.62767335	      4.02953461	     -0.56652454	      0.92115382	     -0.25225638	     11.35175320	      8.77598610	     -8.46022020	    -23.13150152	      6.48349364	     -1.25765175	     14.31984496	     -3.02625499	      6.22644877	    -65.17575457	     -3.47972391	      2.33073330	     -5.79450646	      7.95016403	     -4.81136254	     -1.20439506	    -17.51560273	     20.45864743	     17.03812819	     86.51662706	      0.00000000	      0.00000000	      2.41284772	    -15.07102689	     23.79703702	     28.49058266	     86.51662706	      0.00000000	      0.00000000
      1.34000000	      0.53817138	     -4.20765535	      3.96281242	     -0.55393468	      0.92282288	     -0.25181458	     10.00977867	      8.47166319	     -8.24873342	    -22.35831873	      6.92976592	     -0.94271447	     15.85242005	     -2.40073951	      6.13607772	    -64.77374255	     -2.14859843	      2.07034764	     -5.86171158	      7.45020096	     -4.24732343	     -0.81432678	    -17.61374569	     20.68675032	     17.75614030	     86.51662706	      0.00000000	      0.00000000	      2.32454163	    -14.92864554	     24.55105786	     27.17557690	     86.51662706	      0.00000000	      0.00000000
      1.35000000	      0.50085495	     -3.78780377	      3.82896087	     -0.54134898	      0.92428696	     -0.25129115	      8.71017176	      8.19147955	     -7.86129722	    -21.59146885	      7.34388162	     -0.76459832	     17.31465995	     -1.83642428	      5.91361237	    -64.04635926	     -0.90836897	      1.77408724	     -5.90858718	      6.94326029	     -3.64263476	     -0.41657732	    -17.73532413	     20.87052715	     18.51654430	     86.51662706	      0.00000000	      0.00000000	      2.18827439	    -14.78961584	     25.22153142	     25.90072844	     86.51662706	      0.00000000	      0.00000000
      1.36000000	      0.44713995	     -3.38009554	      3.63862196	     -0.52879700	      0.92550412	     -0.25071006	      7.44660918	      7.94205544	     -7.33992194	    -20.82912459	      7.73860868	     -0.70029091	     18.69969495	     -1.34230994	      5.58541752	    -63.01238734	      0.21538283	      1.39583374	     -5.94354026	      6.44535005	     -3.01280786	     -0.00499823	    -17.88370701	     21.00228299	     19.31983926	     86.51662706	      0.00000000	      0.00000000	      2.00989406	    -14.65533758	     25.80801658	     24.66794042	     86.51662706	      0.00000000	      0.00000000
      1.37000000	      0.38777559	     -2.99537678	      3.40656837	     -0.51630176	      0.92643801	     -0.25010170	      6.20304203	      7.72382093	     -6.74217970	    -20.06465468	      8.12635008	     -0.71012527	     19.99793158	     -0.92085161	      5.18515643	    -61.68727539	      1.19565239	      0.90221959	     -5.97738884	      5.97109899	     -2.37393044	      0.42506436	    -18.06051028	     21.07852153	     20.16489885	     86.51662706	      0.00000000	      0.00000000	      1.79663321	    -14.52752693	     26.31563679	     23.47578933	     86.51662706	      0.00000000	      0.00000000
      1.38000000	      0.33588945	     -2.64345700	      3.15079367	     -0.50385507	      0.92707678	     -0.24948621	      4.95659518	      7.53269801	     -6.13298472	    -19.28952941	      8.51756505	     -0.74338672	     21.19809026	     -0.57041536	      4.74869567	    -60.08340417	      2.00780653	      0.27220448	     -6.02235868	      5.53360414	     -1.74146331	      0.87578749	    -18.26531572	     21.09990275	     21.04906554	     86.51662706	      0.00000000	      0.00000000	      1.55613864	    -14.40740144	     26.75355297	     22.32127722	     86.51662706	      0.00000000	      0.00000000
      1.39000000	      0.30444486	     -2.33215637	      2.88986970	     -0.49142859	      0.92743750	     -0.24887050	      3.68297112	      7.36347781	     -5.57537523	    -18.49697236	      8.91947939	     -0.74629483	     22.28770906	     -0.28662427	      4.30938075	    -58.21239688	      2.63321689	     -0.50386306	     -6.09078246	      5.14343972	     -1.12906625	      1.34663213	    -18.49592664	     21.07088268	     21.96828732	     86.51662706	      0.00000000	      0.00000000	      1.29573285	    -14.29522913	     27.13323132	     21.20137041	     86.51662706	      0.00000000	      0.00000000
      1.40000000	      0.30424822	     -2.06601509	      2.63959756	     -0.47899818	      0.92754250	     -0.24826771	      2.36315331	      7.21266742	     -5.12146498	    -17.68533309	      9.33560474	     -0.67079715	     23.25409221	     -0.06301948	      3.89469066	    -56.08803288	      3.06278757	     -1.42484853	     -6.19372382	      4.80752642	     -0.54756496	      1.83486316	    -18.74905774	     20.99911381	     22.91722503	     86.51662706	      0.00000000	      0.00000000	      1.02187785	    -14.19023016	     27.46674198	     20.11409017	     86.51662706	      0.00000000	      0.00000000
      1.41000000	      0.34288017	     -1.84607201	      2.41056438	     -0.46654536	      0.92739683	     -0.24770233	      0.98867490	      7.07937790	     -4.80537999	    -16.86028328	      9.76607333	     -0.48230012	     24.08650453	      0.10847286	      3.52449332	    -53.72806590	      3.30057202	     -2.47876533	     -6.33963561	      4.52852274	     -0.00422014	      2.33655409	    -19.02109862	     20.89467076	     23.88929770	     86.51662706	      0.00000000	      0.00000000	      0.73977367	    -14.09073673	     27.76530493	     19.05905920	     86.51662706	      0.00000000	      0.00000000
      1.42000000	      0.42386988	     -1.67078652	      2.20722380	     -0.45405395	      0.92699350	     -0.24719555	     -0.43673102	      6.96464090	     -4.63993412	    -16.03517323	     10.20839176	     -0.16468908	     24.77919860	      0.23688583	      3.21080124	    -51.15412340	      3.36682931	     -3.64205742	     -6.53309258	      4.30506996	      0.49755232	      2.84764389	    -19.30858508	     20.76914921	     24.87668004	     86.51662706	      0.00000000	      0.00000000	      0.45305512	    -13.99454190	     28.03824846	     18.03753331	     86.51662706	      0.00000000	      0.00000000
      1.43000000	      0.54589693	     -1.53704889	      2.02848470	     -0.44151777	      0.92632911	     -0.24675652	     -1.89886715	      6.87047415	     -4.61741772	    -15.22925311	     10.65816049	      0.27833039	     25.33390111	      0.33117294	      2.95869509	    -48.39013601	      3.29905373	     -4.87847694	     -6.77372837	      4.13289808	      0.95792003	      3.36466443	    -19.60823753	     20.63467265	     25.87031340	     86.51662706	      0.00000000	      0.00000000	      0.16357338	    -13.89942387	     28.29246580	     17.05202813	     86.51662706	      0.00000000	      0.00000000
